<svg xmlns="http://www.w3.org/2000/svg" viewBox="0 0 198 28" width="198" height="28">
  <g transform="scale(0.2333)">
  <rect x="6" y="6.0" width="108" height="21.6" fill="#ede6da" stroke="#ede6da" stroke-width="0.8"/>
  <rect x="6" y="27.6" width="108" height="5.399999999999999" fill="#ede6da" stroke="#ede6da" stroke-width="0.8"/>
  <rect x="81" y="27.6" width="33" height="5.399999999999999" fill="#ede6da" stroke="#ede6da" stroke-width="0.8"/>
  <rect x="6" y="38.4" width="37" height="5.399999999999999" fill="#ede6da" stroke="#ede6da" stroke-width="0.8"/>
  <rect x="6" y="43.8" width="108" height="10.800000000000004" fill="#ede6da" stroke="#ede6da" stroke-width="0.8"/>
  <rect x="6" y="60.0" width="108" height="10.799999999999997" fill="#ede6da" stroke="#ede6da" stroke-width="0.8"/>
  <rect x="81" y="70.8" width="33" height="16.200000000000003" fill="#ede6da" stroke="#ede6da" stroke-width="0.8"/>
  <rect x="6" y="87.0" width="37" height="5.400000000000006" fill="#ede6da" stroke="#ede6da" stroke-width="0.8"/>
  <rect x="6" y="92.4" width="108" height="21.599999999999994" fill="#ede6da" stroke="#ede6da" stroke-width="0.8"/>
  </g>
  <g transform="translate(40 21.5)">
  <path d="M1.0714285714285716 -2.3142857142857145V-4.457142857142858H3.9428571428571435V-3.1928571428571435L4.65 -2.485714285714286H9.085714285714287L9.814285714285717 -3.214285714285715V-5.700000000000001L9.10714285714286 -6.407142857142858H3.4285714285714293L1.1142857142857145 -8.721428571428573V-12.685714285714289L3.4285714285714293 -15.000000000000002H10.200000000000001L12.514285714285716 -12.685714285714289V-10.521428571428574H9.642857142857144V-11.807142857142859L8.935714285714287 -12.514285714285716H4.692857142857144L3.985714285714286 -11.807142857142859V-9.600000000000001L4.692857142857144 -8.892857142857144H10.371428571428574L12.685714285714289 -6.57857142857143V-2.3571428571428577L10.328571428571431 0.0H3.385714285714286Z M19.414285714285718 -6.12857142857143 14.078571428571431 -15.000000000000002H17.271428571428576L20.85 -8.850000000000001H20.892857142857146L24.471428571428575 -15.000000000000002H27.664285714285718L22.328571428571433 -6.12857142857143V0.0H19.414285714285718Z M29.485714285714288 -15.000000000000002H32.18571428571429L36.642857142857146 -5.314285714285715H36.68571428571429L41.16428571428572 -15.000000000000002H43.86428571428572V0.0H41.057142857142864V-9.12857142857143H41.01428571428572L37.56428571428572 -2.1000000000000005H35.76428571428572L32.33571428571429 -9.12857142857143H32.292857142857144V0.0H29.485714285714288Z M47.07857142857144 -15.000000000000002H56.4857142857143L58.77857142857144 -12.685714285714289V-7.435714285714287L56.46428571428573 -5.1000000000000005H49.992857142857154V0.0H47.07857142857144ZM55.15714285714287 -7.5428571428571445 55.90714285714287 -8.292857142857144V-11.807142857142859L55.15714285714287 -12.557142857142859H49.992857142857154V-7.5428571428571445Z M61.1357142857143 -2.464285714285715V-12.535714285714288L63.600000000000016 -15.000000000000002H71.31428571428573L73.77857142857144 -12.535714285714288V-2.464285714285715L71.31428571428573 0.0H63.600000000000016ZM69.77142857142859 -2.485714285714286 70.86428571428573 -3.578571428571429V-11.421428571428573L69.77142857142859 -12.514285714285716H65.14285714285715L64.05000000000001 -11.421428571428573V-3.578571428571429L65.14285714285715 -2.485714285714286Z M76.1357142857143 -2.3142857142857145 83.82857142857145 -12.514285714285716V-12.557142857142859H76.35000000000001V-15.000000000000002H87.32142857142858V-12.685714285714289L79.62857142857145 -2.485714285714286V-2.442857142857143H87.32142857142858V0.0H76.1357142857143Z M90.00000000000001 -15.000000000000002H92.91428571428573V0.0H90.00000000000001Z M96.2357142857143 -2.571428571428572V-15.000000000000002H99.15000000000002V-3.578571428571429L100.24285714285716 -2.485714285714286H104.44285714285715L105.5357142857143 -3.578571428571429V-15.000000000000002H108.45000000000002V-2.571428571428572L105.87857142857145 0.0H98.80714285714286Z M111.66428571428573 -15.000000000000002H114.36428571428573L118.82142857142858 -5.314285714285715H118.86428571428573L123.34285714285716 -15.000000000000002H126.04285714285716V0.0H123.23571428571431V-9.12857142857143H123.19285714285716L119.74285714285716 -2.1000000000000005H117.94285714285716L114.51428571428573 -9.12857142857143H114.47142857142859V0.0H111.66428571428573Z" fill="#ede6da"/>
  <g transform="translate(128.1 0)"><path d="M0.8571428571428573 -0.9214285714285716V-2.292857142857143L1.778571428571429 -3.214285714285715H3.3428571428571434L4.242857142857144 -2.271428571428572V-0.9428571428571431L3.3428571428571434 0.0H1.778571428571429Z M11.121428571428574 -15.000000000000002H13.778571428571432L19.264285714285716 0.0H16.30714285714286L15.085714285714289 -3.321428571428572H9.814285714285717L8.592857142857145 0.0H5.635714285714286ZM14.442857142857147 -5.721428571428572 12.450000000000003 -11.421428571428573H12.407142857142858L10.478571428571431 -5.721428571428572Z M21.3 -15.000000000000002H24.214285714285715V0.0H21.3Z" fill="#e8562a"/></g>
  </g>
</svg>
