<svg xmlns="http://www.w3.org/2000/svg" viewBox="0 0 250 34" width="250" height="34">
  <g transform="translate(2 29.0)">
  <path d="M1.7142857142857144 -3.702857142857143V-7.131428571428572H6.308571428571429V-5.1085714285714285L7.44 -3.9771428571428573H14.537142857142857L15.702857142857143 -5.142857142857143V-9.120000000000001L14.571428571428573 -10.251428571428573H5.485714285714286L1.782857142857143 -13.954285714285716V-20.29714285714286L5.485714285714286 -24.0H16.32L20.022857142857145 -20.29714285714286V-16.834285714285716H15.428571428571429V-18.891428571428573L14.297142857142857 -20.022857142857145H7.508571428571429L6.377142857142857 -18.891428571428573V-15.360000000000001L7.508571428571429 -14.22857142857143H16.594285714285714L20.29714285714286 -10.525714285714287V-3.771428571428572L16.525714285714287 0.0H5.417142857142857Z M31.062857142857144 -9.805714285714286 22.525714285714287 -24.0H27.634285714285717L33.36 -14.16H33.42857142857143L39.15428571428572 -24.0H44.26285714285714L35.72571428571429 -9.805714285714286V0.0H31.062857142857144Z M47.177142857142854 -24.0H51.497142857142855L58.628571428571426 -8.502857142857144H58.69714285714286L65.86285714285714 -24.0H70.18285714285715V0.0H65.69142857142857V-14.605714285714287H65.62285714285714L60.10285714285714 -3.3600000000000003H57.22285714285714L51.73714285714286 -14.605714285714287H51.668571428571425V0.0H47.177142857142854Z M75.32571428571428 -24.0H90.37714285714286L94.04571428571428 -20.29714285714286V-11.897142857142859L90.34285714285714 -8.16H79.98857142857143V0.0H75.32571428571428ZM88.25142857142858 -12.06857142857143 89.45142857142858 -13.268571428571429V-18.891428571428573L88.25142857142858 -20.091428571428573H79.98857142857143V-12.06857142857143Z M97.81714285714285 -3.942857142857143V-20.057142857142857L101.75999999999999 -24.0H114.10285714285715L118.04571428571428 -20.057142857142857V-3.942857142857143L114.10285714285715 0.0H101.75999999999999ZM111.63428571428571 -3.9771428571428573 113.38285714285715 -5.725714285714286V-18.274285714285714L111.63428571428571 -20.022857142857145H104.22857142857143L102.48 -18.274285714285714V-5.725714285714286L104.22857142857143 -3.9771428571428573Z M121.81714285714285 -3.702857142857143 134.12571428571428 -20.022857142857145V-20.091428571428573H122.16V-24.0H139.71428571428572V-20.29714285714286L127.40571428571428 -3.9771428571428573V-3.908571428571429H139.71428571428572V0.0H121.81714285714285Z M144.0 -24.0H148.66285714285715V0.0H144.0Z M153.97714285714284 -4.114285714285715V-24.0H158.64V-5.725714285714286L160.38857142857142 -3.9771428571428573H167.10857142857142L168.85714285714283 -5.725714285714286V-24.0H173.51999999999998V-4.114285714285715L169.40571428571428 0.0H158.09142857142857Z M178.66285714285712 -24.0H182.9828571428571L190.1142857142857 -8.502857142857144H190.18285714285713L197.3485714285714 -24.0H201.6685714285714V0.0H197.17714285714283V-14.605714285714287H197.1085714285714L191.5885714285714 -3.3600000000000003H188.70857142857142L183.22285714285712 -14.605714285714287H183.1542857142857V0.0H178.66285714285712Z" fill="#ede6da"/>
  <g transform="translate(204.9 0)"><path d="M1.3714285714285714 -1.4742857142857144V-3.6685714285714286L2.8457142857142856 -5.142857142857143H5.348571428571429L6.788571428571429 -3.6342857142857143V-1.5085714285714287L5.348571428571429 0.0H2.8457142857142856Z M17.794285714285714 -24.0H22.045714285714286L30.822857142857146 0.0H26.091428571428573L24.137142857142855 -5.314285714285715H15.702857142857143L13.748571428571427 0.0H9.017142857142856ZM23.10857142857143 -9.154285714285715 19.92 -18.274285714285714H19.85142857142857L16.765714285714285 -9.154285714285715Z M34.080000000000005 -24.0H38.74285714285715V0.0H34.080000000000005Z" fill="#e8562a"/></g>
  </g>
</svg>
