<svg xmlns="http://www.w3.org/2000/svg" viewBox="0 0 535 96" width="535" height="96">
  <g transform="scale(0.8000)">
  <rect x="6" y="6.0" width="108" height="21.6" fill="#2b1e17" stroke="#2b1e17" stroke-width="0.8"/>
  <rect x="6" y="27.6" width="108" height="5.399999999999999" fill="#2b1e17" stroke="#2b1e17" stroke-width="0.8"/>
  <rect x="81" y="27.6" width="33" height="5.399999999999999" fill="#2b1e17" stroke="#2b1e17" stroke-width="0.8"/>
  <rect x="6" y="38.4" width="37" height="5.399999999999999" fill="#2b1e17" stroke="#2b1e17" stroke-width="0.8"/>
  <rect x="6" y="43.8" width="108" height="10.800000000000004" fill="#2b1e17" stroke="#2b1e17" stroke-width="0.8"/>
  <rect x="6" y="60.0" width="108" height="10.799999999999997" fill="#2b1e17" stroke="#2b1e17" stroke-width="0.8"/>
  <rect x="81" y="70.8" width="33" height="16.200000000000003" fill="#2b1e17" stroke="#2b1e17" stroke-width="0.8"/>
  <rect x="6" y="87.0" width="37" height="5.400000000000006" fill="#2b1e17" stroke="#2b1e17" stroke-width="0.8"/>
  <rect x="6" y="92.4" width="108" height="21.599999999999994" fill="#2b1e17" stroke="#2b1e17" stroke-width="0.8"/>
  </g>
  <rect x="108" y="8" width="2" height="80" fill="#2b1e17" opacity="0.35"/>
  <g transform="translate(122 46)">
  <path d="M3.2857142857142865 -7.097142857142858V-13.66857142857143H12.091428571428573V-9.791428571428574L14.260000000000002 -7.6228571428571446H27.86285714285715L30.097142857142863 -9.85714285714286V-17.480000000000004L27.928571428571434 -19.648571428571433H10.514285714285716L3.4171428571428577 -26.74571428571429V-38.90285714285715L10.514285714285716 -46.00000000000001H31.280000000000005L38.377142857142864 -38.90285714285715V-32.26571428571429H29.571428571428577V-36.20857142857143L27.402857142857147 -38.377142857142864H14.391428571428573L12.222857142857144 -36.20857142857143V-29.440000000000005L14.391428571428573 -27.271428571428576H31.80571428571429L38.90285714285715 -20.174285714285716V-7.2285714285714295L31.67428571428572 0.0H10.382857142857144Z M59.53714285714287 -18.794285714285717 43.17428571428572 -46.00000000000001H52.9657142857143L63.94000000000001 -27.140000000000004H64.07142857142858L75.0457142857143 -46.00000000000001H84.83714285714288L68.47428571428573 -18.794285714285717V0.0H59.53714285714287Z M90.42285714285717 -46.00000000000001H98.70285714285717L112.3714285714286 -16.29714285714286H112.50285714285717L126.23714285714289 -46.00000000000001H134.5171428571429V0.0H125.90857142857146V-27.99428571428572H125.77714285714289L115.1971428571429 -6.440000000000001H109.67714285714288L99.16285714285718 -27.99428571428572H99.03142857142859V0.0H90.42285714285717Z M144.37428571428575 -46.00000000000001H173.22285714285718L180.25428571428574 -38.90285714285715V-22.802857142857146L173.1571428571429 -15.640000000000002H153.3114285714286V0.0H144.37428571428575ZM169.14857142857147 -23.131428571428575 171.44857142857146 -25.431428571428576V-36.20857142857143L169.14857142857147 -38.508571428571436H153.3114285714286V-23.131428571428575Z M187.4828571428572 -7.557142857142859V-38.44285714285715L195.04000000000005 -46.00000000000001H218.69714285714292L226.25428571428577 -38.44285714285715V-7.557142857142859L218.69714285714292 0.0H195.04000000000005ZM213.96571428571434 -7.6228571428571446 217.3171428571429 -10.974285714285717V-35.025714285714294L213.96571428571434 -38.377142857142864H199.77142857142863L196.42000000000004 -35.025714285714294V-10.974285714285717L199.77142857142863 -7.6228571428571446Z M233.4828571428572 -7.097142857142858 257.0742857142858 -38.377142857142864V-38.508571428571436H234.14000000000004V-46.00000000000001H267.78571428571433V-38.90285714285715L244.19428571428577 -7.6228571428571446V-7.491428571428573H267.78571428571433V0.0H233.4828571428572Z M276.00000000000006 -46.00000000000001H284.9371428571429V0.0H276.00000000000006Z M295.12285714285713 -7.885714285714287V-46.00000000000001H304.06V-10.974285714285717L307.4114285714286 -7.6228571428571446H320.2914285714286L323.64285714285717 -10.974285714285717V-46.00000000000001H332.58000000000004V-7.885714285714287L324.69428571428574 0.0H303.00857142857143Z M342.4371428571428 -46.00000000000001H350.71714285714285L364.3857142857143 -16.29714285714286H364.51714285714286L378.25142857142856 -46.00000000000001H386.5314285714286V0.0H377.92285714285714V-27.99428571428572H377.7914285714286L367.21142857142854 -6.440000000000001H361.69142857142856L351.1771428571428 -27.99428571428572H351.04571428571427V0.0H342.4371428571428Z" fill="#2b1e17"/>
  </g>
  <g transform="translate(124 70)">
  <path d="M6.699000000000001 0.0 5.9305 -2.697H2.7115L1.943 0.0H0.29000000000000004L3.248 -10.121H5.4665L8.4245 0.0ZM4.3790000000000004 -8.4825H4.263L3.016 -4.0455000000000005H5.626Z M16.965 -1.3920000000000001H16.863500000000002Q16.733 -1.0875000000000001 16.55175 -0.8047500000000001Q16.3705 -0.522 16.102249999999998 -0.3045Q15.834 -0.08700000000000001 15.457 0.043500000000000004Q15.080000000000002 0.17400000000000002 14.587 0.17400000000000002Q13.0065 0.17400000000000002 12.209 -1.1745Q11.4115 -2.523 11.4115 -4.988Q11.4115 -7.569 12.325 -8.932Q13.2385 -10.295 15.1235 -10.295Q15.863 -10.295 16.42125 -10.092Q16.9795 -9.889000000000001 17.371000000000002 -9.548250000000001Q17.762500000000003 -9.207500000000001 18.023500000000002 -8.75075Q18.2845 -8.294 18.444000000000003 -7.7865L16.9795 -7.293500000000001Q16.863500000000002 -7.627000000000001 16.718500000000002 -7.924250000000001Q16.573500000000003 -8.2215 16.36325 -8.453500000000002Q16.153 -8.685500000000001 15.85575 -8.816Q15.5585 -8.9465 15.138000000000002 -8.9465Q14.079500000000001 -8.9465 13.608250000000002 -8.12725Q13.137 -7.308000000000001 13.137 -5.916V-4.306500000000001Q13.137 -3.6105 13.2385 -3.0305Q13.34 -2.4505000000000003 13.57925 -2.0372500000000002Q13.8185 -1.624 14.20275 -1.3920000000000001Q14.587 -1.1600000000000001 15.138000000000002 -1.1600000000000001Q16.0225 -1.1600000000000001 16.49375 -1.6892500000000001Q16.965 -2.2185 16.965 -3.0450000000000004V-3.9585000000000004H15.0075V-5.1765H18.444000000000003V0.0H16.965Z M22.707 0.0V-10.121H29.0435V-8.758000000000001H24.331V-5.814500000000001H28.869500000000002V-4.4515H24.331V-1.363H29.0435V0.0Z M34.785500000000006 -7.7865H34.65500000000001V0.0H33.234V-10.121H35.322L38.294500000000006 -2.3345000000000002H38.425000000000004V-10.121H39.846000000000004V0.0H37.758Z M48.08200000000001 -8.758000000000001V0.0H46.45800000000001V-8.758000000000001H43.282500000000006V-10.121H51.25750000000001V-8.758000000000001Z M54.81000000000002 0.0V-1.2325000000000002H57.18800000000002V-8.8885H54.81000000000002V-10.121H61.19000000000001V-8.8885H58.81200000000001V-1.2325000000000002H61.19000000000001V0.0Z M69.02000000000001 0.17400000000000002Q67.09150000000001 0.17400000000000002 66.15625 -1.189Q65.221 -2.552 65.221 -5.0605Q65.221 -7.569 66.15625 -8.932Q67.09150000000001 -10.295 69.02000000000001 -10.295Q69.7595 -10.295 70.30325 -10.099250000000001Q70.84700000000001 -9.903500000000001 71.23850000000002 -9.562750000000001Q71.63000000000001 -9.222000000000001 71.89825000000002 -8.765250000000002Q72.16650000000001 -8.3085 72.3405 -7.7865L70.876 -7.293500000000001Q70.76 -7.641500000000001 70.61500000000001 -7.946000000000001Q70.47000000000001 -8.2505 70.25250000000001 -8.468Q70.03500000000001 -8.685500000000001 69.73775 -8.816Q69.44050000000001 -8.9465 69.00550000000001 -8.9465Q67.9325 -8.9465 67.43950000000001 -8.12725Q66.94650000000001 -7.308000000000001 66.94650000000001 -5.916V-4.205Q66.94650000000001 -2.813 67.43950000000001 -1.9937500000000001Q67.9325 -1.1745 69.00550000000001 -1.1745Q69.44050000000001 -1.1745 69.73775 -1.3050000000000002Q70.03500000000001 -1.4355 70.25250000000001 -1.653Q70.47000000000001 -1.8705 70.61500000000001 -2.1750000000000003Q70.76 -2.4795000000000003 70.876 -2.8275L72.3405 -2.3345000000000002Q72.16650000000001 -1.8125 71.89825000000002 -1.35575Q71.63000000000001 -0.899 71.23850000000002 -0.55825Q70.84700000000001 -0.2175 70.30325 -0.02174999999999999Q69.7595 0.17400000000000002 69.02000000000001 0.17400000000000002Z M90.48000000000002 0.17400000000000002Q88.55150000000002 0.17400000000000002 87.61625000000001 -1.189Q86.68100000000001 -2.552 86.68100000000001 -5.0605Q86.68100000000001 -7.569 87.61625000000001 -8.932Q88.55150000000002 -10.295 90.48000000000002 -10.295Q91.21950000000001 -10.295 91.76325000000001 -10.099250000000001Q92.30700000000002 -9.903500000000001 92.69850000000002 -9.562750000000001Q93.09000000000002 -9.222000000000001 93.35825000000003 -8.765250000000002Q93.62650000000002 -8.3085 93.80050000000001 -7.7865L92.33600000000001 -7.293500000000001Q92.22000000000001 -7.641500000000001 92.07500000000002 -7.946000000000001Q91.93000000000002 -8.2505 91.71250000000002 -8.468Q91.49500000000002 -8.685500000000001 91.19775000000001 -8.816Q90.90050000000002 -8.9465 90.46550000000002 -8.9465Q89.39250000000001 -8.9465 88.89950000000002 -8.12725Q88.40650000000002 -7.308000000000001 88.40650000000002 -5.916V-4.205Q88.40650000000002 -2.813 88.89950000000002 -1.9937500000000001Q89.39250000000001 -1.1745 90.46550000000002 -1.1745Q90.90050000000002 -1.1745 91.19775000000001 -1.3050000000000002Q91.49500000000002 -1.4355 91.71250000000002 -1.653Q91.93000000000002 -1.8705 92.07500000000002 -2.1750000000000003Q92.22000000000001 -2.4795000000000003 92.33600000000001 -2.8275L93.80050000000001 -2.3345000000000002Q93.62650000000002 -1.8125 93.35825000000003 -1.35575Q93.09000000000002 -0.899 92.69850000000002 -0.55825Q92.30700000000002 -0.2175 91.76325000000001 -0.02174999999999999Q91.21950000000001 0.17400000000000002 90.48000000000002 0.17400000000000002Z M100.92000000000002 0.17400000000000002Q99.96300000000002 0.17400000000000002 99.25975000000003 -0.18124999999999997Q98.55650000000003 -0.5365 98.09975000000003 -1.2035Q97.64300000000001 -1.8705 97.42550000000003 -2.842Q97.20800000000003 -3.8135000000000003 97.20800000000003 -5.0605Q97.20800000000003 -6.293 97.42550000000003 -7.271750000000001Q97.64300000000001 -8.2505 98.09975000000003 -8.9175Q98.55650000000003 -9.5845 99.25975000000003 -9.93975Q99.96300000000002 -10.295 100.92000000000002 -10.295Q101.87700000000002 -10.295 102.58025000000002 -9.93975Q103.28350000000002 -9.5845 103.74025000000002 -8.9175Q104.19700000000002 -8.2505 104.41450000000002 -7.271750000000001Q104.63200000000002 -6.293 104.63200000000002 -5.0605Q104.63200000000002 -3.8135000000000003 104.41450000000002 -2.842Q104.19700000000002 -1.8705 103.74025000000002 -1.2035Q103.28350000000002 -0.5365 102.58025000000002 -0.18124999999999997Q101.87700000000002 0.17400000000000002 100.92000000000002 0.17400000000000002ZM100.92000000000002 -1.1745Q102.00750000000002 -1.1745 102.45700000000002 -1.9937500000000001Q102.90650000000002 -2.813 102.90650000000002 -4.2195V-5.916Q102.90650000000002 -7.308000000000001 102.45700000000002 -8.12725Q102.00750000000002 -8.9465 100.92000000000002 -8.9465Q99.83250000000002 -8.9465 99.38300000000002 -8.12725Q98.93350000000002 -7.308000000000001 98.93350000000002 -5.916V-4.205Q98.93350000000002 -2.813 99.38300000000002 -1.9937500000000001Q99.83250000000002 -1.1745 100.92000000000002 -1.1745Z M109.89550000000003 -7.7865H109.76500000000003V0.0H108.34400000000002V-10.121H110.43200000000003L113.40450000000003 -2.3345000000000002H113.53500000000003V-10.121H114.95600000000003V0.0H112.86800000000002Z M123.19200000000004 -8.758000000000001V0.0H121.56800000000003V-8.758000000000001H118.39250000000003V-10.121H126.36750000000004V-8.758000000000001Z M131.5875 0.0H129.978V-10.121H133.76250000000002Q135.21250000000003 -10.121 135.97375000000002 -9.309000000000001Q136.735 -8.497 136.735 -7.0760000000000005Q136.735 -5.916 136.16950000000003 -5.162000000000001Q135.604 -4.408 134.54550000000003 -4.234L136.88000000000002 0.0H135.08200000000002L132.936 -4.089H131.5875ZM133.53050000000002 -5.394Q135.03850000000003 -5.394 135.03850000000003 -6.7715000000000005V-7.3950000000000005Q135.03850000000003 -8.7725 133.53050000000002 -8.7725H131.5875V-5.394Z M143.84 0.17400000000000002Q142.883 0.17400000000000002 142.17975 -0.18124999999999997Q141.47650000000002 -0.5365 141.01975000000002 -1.2035Q140.56300000000002 -1.8705 140.34550000000002 -2.842Q140.12800000000001 -3.8135000000000003 140.12800000000001 -5.0605Q140.12800000000001 -6.293 140.34550000000002 -7.271750000000001Q140.56300000000002 -8.2505 141.01975000000002 -8.9175Q141.47650000000002 -9.5845 142.17975 -9.93975Q142.883 -10.295 143.84 -10.295Q144.797 -10.295 145.50025 -9.93975Q146.20350000000002 -9.5845 146.66025000000002 -8.9175Q147.11700000000002 -8.2505 147.33450000000002 -7.271750000000001Q147.55200000000002 -6.293 147.55200000000002 -5.0605Q147.55200000000002 -3.8135000000000003 147.33450000000002 -2.842Q147.11700000000002 -1.8705 146.66025000000002 -1.2035Q146.20350000000002 -0.5365 145.50025 -0.18124999999999997Q144.797 0.17400000000000002 143.84 0.17400000000000002ZM143.84 -1.1745Q144.9275 -1.1745 145.377 -1.9937500000000001Q145.8265 -2.813 145.8265 -4.2195V-5.916Q145.8265 -7.308000000000001 145.377 -8.12725Q144.9275 -8.9465 143.84 -8.9465Q142.7525 -8.9465 142.303 -8.12725Q141.8535 -7.308000000000001 141.8535 -5.916V-4.205Q141.8535 -2.813 142.303 -1.9937500000000001Q142.7525 -1.1745 143.84 -1.1745Z M151.786 0.0V-10.121H153.41V-1.363H158.021V0.0Z M172.89799999999997 0.0V-10.121H176.68249999999998Q178.1325 -10.121 178.89374999999998 -9.309000000000001Q179.65499999999997 -8.497 179.65499999999997 -7.0760000000000005Q179.65499999999997 -5.655 178.89374999999998 -4.843Q178.1325 -4.031000000000001 176.68249999999998 -4.031000000000001H174.522V0.0ZM174.522 -5.3795H176.43599999999998Q177.944 -5.3795 177.944 -6.7715000000000005V-7.3950000000000005Q177.944 -8.7725 176.43599999999998 -8.7725H174.522Z M183.97599999999997 0.0V-10.121H185.59999999999997V-1.363H190.21099999999996V0.0Z M199.83899999999997 0.0 199.07049999999995 -2.697H195.85149999999996L195.08299999999997 0.0H193.42999999999995L196.38799999999995 -10.121H198.60649999999995L201.56449999999995 0.0ZM197.51899999999995 -8.4825H197.40299999999996L196.15599999999995 -4.0455000000000005H198.76599999999996Z M206.46549999999993 -7.7865H206.33499999999995V0.0H204.91399999999996V-10.121H207.00199999999995L209.97449999999995 -2.3345000000000002H210.10499999999996V-10.121H211.52599999999995V0.0H209.43799999999996Z M215.84699999999995 0.0V-10.121H222.18349999999992V-8.758000000000001H217.47099999999995V-5.814500000000001H222.00949999999995V-4.4515H217.47099999999995V-1.363H222.18349999999992V0.0Z" fill="#2b1e17"/>
  </g>
  <g transform="translate(124 90)">
  <path d="M2.7840000000000003 -4.5095Q2.7840000000000003 -5.5680000000000005 3.02325 -6.54675Q3.2625 -7.5255 3.6757500000000003 -8.3665Q4.089 -9.207500000000001 4.640000000000001 -9.88175Q5.191 -10.556000000000001 5.800000000000001 -11.020000000000001H7.3805000000000005Q6.728000000000001 -10.556000000000001 6.148000000000001 -9.932500000000001Q5.5680000000000005 -9.309000000000001 5.133000000000001 -8.555Q4.698 -7.801 4.437 -6.95275Q4.176 -6.104500000000001 4.176 -5.1765V-3.8425000000000002Q4.176 -2.9145000000000003 4.437 -2.06625Q4.698 -1.218 5.133000000000001 -0.46399999999999997Q5.5680000000000005 0.29000000000000004 6.148000000000001 0.9135000000000001Q6.728000000000001 1.5370000000000001 7.3805000000000005 2.001H5.800000000000001Q5.191 1.5515 4.640000000000001 0.8700000000000001Q4.089 0.1885 3.6757500000000003 -0.6525000000000001Q3.2625 -1.4935 3.02325 -2.47225Q2.7840000000000003 -3.451 2.7840000000000003 -4.5095Z M25.433 -4.6545000000000005 24.215 -3.132V0.0H22.591V-10.121H24.215V-5.2780000000000005H24.2875L25.520000000000003 -6.96L27.9995 -10.121H29.87L26.535 -5.8580000000000005L30.000500000000002 0.0H28.1445Z M36.540000000000006 0.17400000000000002Q35.641000000000005 0.17400000000000002 34.959500000000006 -0.05075Q34.278000000000006 -0.2755 33.81400000000001 -0.667Q33.35000000000001 -1.0585 33.11075000000001 -1.595Q32.871500000000005 -2.1315 32.871500000000005 -2.7695000000000003Q32.871500000000005 -3.7845 33.437000000000005 -4.3935Q34.002500000000005 -5.0025 34.916000000000004 -5.2490000000000006V-5.365Q34.133 -5.6405 33.6545 -6.235Q33.176 -6.8295 33.176 -7.6995000000000005Q33.176 -8.874 34.053250000000006 -9.5845Q34.9305 -10.295 36.540000000000006 -10.295Q38.1495 -10.295 39.02675000000001 -9.5845Q39.904 -8.874 39.904 -7.6995000000000005Q39.904 -6.8295 39.4255 -6.235Q38.947 -5.6405 38.164 -5.365V-5.2490000000000006Q39.07750000000001 -5.0025 39.64300000000001 -4.3935Q40.20850000000001 -3.7845 40.20850000000001 -2.7695000000000003Q40.20850000000001 -2.1315 39.96925 -1.595Q39.730000000000004 -1.0585 39.266000000000005 -0.667Q38.80200000000001 -0.2755 38.12050000000001 -0.05075Q37.43900000000001 0.17400000000000002 36.540000000000006 0.17400000000000002ZM36.540000000000006 -1.1165Q37.49700000000001 -1.1165 38.011750000000006 -1.537Q38.526500000000006 -1.9575 38.526500000000006 -2.726V-3.0305Q38.526500000000006 -3.7990000000000004 38.011750000000006 -4.2195Q37.49700000000001 -4.640000000000001 36.540000000000006 -4.640000000000001Q35.583000000000006 -4.640000000000001 35.068250000000006 -4.2195Q34.55350000000001 -3.7990000000000004 34.55350000000001 -3.0305V-2.726Q34.55350000000001 -1.9575 35.068250000000006 -1.537Q35.583000000000006 -1.1165 36.540000000000006 -1.1165ZM36.540000000000006 -5.8870000000000005Q37.410000000000004 -5.8870000000000005 37.86675 -6.27125Q38.3235 -6.6555 38.3235 -7.351500000000001V-7.54Q38.3235 -8.236 37.86675 -8.62025Q37.410000000000004 -9.0045 36.540000000000006 -9.0045Q35.67 -9.0045 35.21325 -8.62025Q34.7565 -8.236 34.7565 -7.54V-7.351500000000001Q34.7565 -6.6555 35.21325 -6.27125Q35.67 -5.8870000000000005 36.540000000000006 -5.8870000000000005Z M47.18300000000001 0.17400000000000002Q45.86350000000001 0.17400000000000002 44.96450000000001 -0.29Q44.06550000000001 -0.754 43.48550000000001 -1.5225000000000002L44.529500000000006 -2.523Q45.10950000000001 -1.8270000000000002 45.762000000000015 -1.50075Q46.41450000000001 -1.1745 47.24100000000001 -1.1745Q48.19800000000001 -1.1745 48.71275000000001 -1.6095000000000002Q49.227500000000006 -2.0445 49.227500000000006 -2.8565Q49.227500000000006 -3.5090000000000003 48.85050000000001 -3.86425Q48.47350000000001 -4.2195 47.56000000000001 -4.3790000000000004L46.45800000000001 -4.553Q45.73300000000001 -4.6690000000000005 45.24000000000001 -4.937250000000001Q44.74700000000001 -5.205500000000001 44.44250000000001 -5.5752500000000005Q44.138000000000005 -5.945 44.00025000000001 -6.40175Q43.86250000000001 -6.8585 43.86250000000001 -7.3660000000000005Q43.86250000000001 -8.8015 44.79050000000001 -9.54825Q45.718500000000006 -10.295 47.34250000000001 -10.295Q48.54600000000001 -10.295 49.39425000000001 -9.91075Q50.24250000000001 -9.5265 50.76450000000001 -8.8305L49.74950000000001 -7.8155Q49.32900000000001 -8.323 48.75625000000001 -8.63475Q48.18350000000001 -8.9465 47.34250000000001 -8.9465Q46.44350000000001 -8.9465 45.97225000000001 -8.56225Q45.50100000000001 -8.178 45.50100000000001 -7.4385Q45.50100000000001 -6.815 45.870750000000015 -6.4597500000000005Q46.24050000000001 -6.104500000000001 47.18300000000001 -5.945L48.25600000000001 -5.7565Q49.61900000000001 -5.510000000000001 50.24250000000001 -4.763250000000001Q50.86600000000001 -4.016500000000001 50.86600000000001 -2.9435000000000002Q50.86600000000001 -2.2475 50.62675000000001 -1.6675Q50.38750000000001 -1.0875000000000001 49.916250000000005 -0.6815000000000001Q49.44500000000001 -0.2755 48.75625000000001 -0.05075Q48.06750000000001 0.17400000000000002 47.18300000000001 0.17400000000000002Z M55.81050000000001 -3.625V-5.205500000000001H60.18950000000001V-3.625Z M66.97550000000001 -7.7865H66.84500000000001V0.0H65.424V-10.121H67.51200000000001L70.48450000000001 -2.3345000000000002H70.61500000000001V-10.121H72.03600000000002V0.0H69.94800000000001Z M81.80900000000001 0.0 81.04050000000001 -2.697H77.82150000000001L77.05300000000001 0.0H75.40000000000002L78.35800000000002 -10.121H80.57650000000001L83.53450000000001 0.0ZM79.48900000000002 -8.4825H79.37300000000002L78.12600000000002 -4.0455000000000005H80.73600000000002Z M91.00200000000002 -8.758000000000001V0.0H89.37800000000001V-8.758000000000001H86.20250000000001V-10.121H94.17750000000002V-8.758000000000001Z M97.73000000000002 0.0V-1.2325000000000002H100.10800000000002V-8.8885H97.73000000000002V-10.121H104.11000000000003V-8.8885H101.73200000000003V-1.2325000000000002H104.11000000000003V0.0Z M110.51900000000002 0.0 107.66250000000002 -10.121H109.41700000000003L110.75100000000002 -5.017L111.63550000000002 -1.5805H111.72250000000003L112.60700000000003 -5.017L113.95550000000003 -10.121H115.63750000000003L112.78100000000002 0.0Z M119.27700000000003 0.0V-10.121H125.61350000000003V-8.758000000000001H120.90100000000002V-5.814500000000001H125.43950000000002V-4.4515H120.90100000000002V-1.363H125.61350000000003V0.0Z M145.406 -4.5095Q145.406 -3.451 145.16675 -2.47225Q144.9275 -1.4935 144.51425 -0.6525000000000001Q144.101 0.1885 143.55 0.8700000000000001Q142.99900000000002 1.5515 142.39000000000001 2.001H140.8095Q141.46200000000002 1.5370000000000001 142.04200000000003 0.9135000000000001Q142.622 0.29000000000000004 143.05700000000002 -0.46399999999999997Q143.49200000000002 -1.218 143.75300000000001 -2.06625Q144.014 -2.9145000000000003 144.014 -3.8425000000000002V-5.1765Q144.014 -6.104500000000001 143.75300000000001 -6.95275Q143.49200000000002 -7.801 143.05700000000002 -8.555Q142.622 -9.309000000000001 142.04200000000003 -9.932500000000001Q141.46200000000002 -10.556000000000001 140.8095 -11.020000000000001H142.39000000000001Q142.99900000000002 -10.556000000000001 143.55 -9.88175Q144.101 -9.207500000000001 144.51425 -8.3665Q144.9275 -7.5255 145.16675 -6.54675Q145.406 -5.5680000000000005 145.406 -4.5095Z" fill="#c24a1a"/>
  </g>
</svg>
